USFL
nRows=214
nColumns=2
inDegrees=yes
endheader
time	tib_ant_r	
2.69456	 70.780961	
2.72782	 70.772030	
2.76109	 70.785098	
2.79435	 70.775339	
2.82762	 70.732994	
2.86089	 70.725371	
2.89415	 70.723821	
2.92742	 70.718630	
2.96069	 70.634399	
2.99395	 70.578850	
3.02722	 70.571049	
3.06048	 70.596900	
3.09375	 70.684775	
3.12702	 70.730606	
3.16028	 70.726488	
3.19355	 70.734541	
3.22681	 70.750522	
3.26008	 70.726263	
3.29335	 70.783758	
3.32661	 70.757565	
3.35988	 70.732980	
3.39315	 70.706817	
3.42641	 70.694670	
3.45968	 70.750129	
3.49294	 70.787941	
3.52621	 70.798946	
3.55948	 70.765946	
3.59274	 70.728556	
3.62601	 70.695200	
3.65927	 70.682607	
3.69254	 70.683992	
3.72581	 70.696977	
3.75907	 70.703513	
3.79234	 70.700354	
3.8256	 70.722045	
3.85887	 70.725053	
3.89214	 70.674369	
3.9254	 70.670015	
3.95867	 70.676909	
3.99194	 70.679190	
4.0252	 70.699049	
4.05847	 70.703738	
4.09173	 70.710764	
4.125	 70.694108	
4.15827	 70.707741	
4.19153	 70.717805	
4.2248	 70.714584	
4.25806	 70.691649	
4.29133	 70.616289	
4.3246	 70.521139	
4.35786	 70.250042	
4.39113	 70.278711	
4.4244	 70.170893	
4.45766	 70.438787	
4.49093	 70.780746	
4.52419	 70.785010	
4.55746	 71.145152	
4.59073	 71.104008	
4.62399	 56.965803	
4.65726	 57.243857	
4.69052	 57.343084	
4.72379	 57.422487	
4.75706	 57.767955	
4.79032	 57.070828	
4.82359	 57.077439	
4.85685	 57.238243	
4.89012	 56.667660	
4.92339	 56.234689	
4.95665	 55.926757	
4.98992	 55.623225	
5.02319	 55.511400	
5.05645	 55.337022	
5.08972	 55.204794	
5.12298	 55.207885	
5.15625	 55.199366	
5.18952	 55.193668	
5.22278	 55.234060	
5.25605	 55.240807	
5.28931	 55.203476	
5.32258	 55.233478	
5.35585	 55.288053	
5.38911	 55.325633	
5.42238	 55.287113	
5.45565	 55.275935	
5.48891	 55.240653	
5.52218	 55.272010	
5.55544	 55.290005	
5.58871	 55.302621	
5.62198	 55.230702	
5.65524	 55.259095	
5.68851	 55.251332	
5.72177	 55.067056	
5.75504	 55.122245	
5.78831	 55.125129	
5.82157	 55.144667	
5.85484	 55.051587	
5.8881	 55.062759	
5.92137	 55.145167	
5.95464	 55.176203	
5.9879	 55.201808	
6.02117	 55.257381	
6.05444	 55.319704	
6.0877	 55.334259	
6.12097	 55.307385	
6.15423	 55.399759	
6.1875	 55.331397	
6.22077	 55.195239	
6.25403	 55.250121	
6.2873	 55.313151	
6.32056	 55.381483	
6.35383	 55.363735	
6.3871	 55.324761	
6.42036	 55.292205	
6.45363	 55.299873	
6.4869	 55.404460	
6.52016	 55.401619	
6.55343	 55.354807	
6.58669	 55.216623	
6.61996	 55.345748	
6.65323	 55.396847	
6.68649	 55.381544	
6.71976	 55.391829	
6.75302	 55.421850	
6.78629	 55.419528	
6.81956	 55.302592	
6.85282	 55.233292	
6.88609	 55.262987	
6.91935	 55.373599	
6.95262	 55.411194	
6.98589	 55.357447	
7.01915	 55.339582	
7.05242	 55.306425	
7.08569	 55.298602	
7.11895	 55.387821	
7.15222	 55.372918	
7.18548	 55.394447	
7.21875	 55.512258	
7.25202	 55.390040	
7.28528	 55.340684	
7.31855	 55.265535	
7.35181	 55.348974	
7.38508	 55.455443	
7.41835	 55.425913	
7.45161	 55.396074	
7.48488	 55.380661	
7.51815	 55.344836	
7.55141	 55.295309	
7.58468	 55.307148	
7.61794	 55.259812	
7.65121	 55.370638	
7.68448	 55.328049	
7.71774	 55.410782	
7.75101	 55.398595	
7.78427	 55.376112	
7.81754	 55.404004	
7.85081	 55.423767	
7.88407	 55.383424	
7.91734	 55.310151	
7.9506	 55.291734	
7.98387	 55.355899	
8.01714	 55.434047	
8.0504	 55.515244	
8.08367	 55.338437	
8.11694	 55.185103	
8.1502	 55.066964	
8.18347	 55.217762	
8.21673	 55.404431	
8.25	 55.493968	
8.28327	 55.305057	
8.31653	 55.238096	
8.3498	 55.356347	
8.38306	 55.374766	
8.41633	 55.443731	
8.4496	 55.384025	
8.48286	 55.291347	
8.51613	 55.299982	
8.5494	 55.300992	
8.58266	 55.309066	
8.61593	 55.262632	
8.64919	 55.377005	
8.68246	 55.387220	
8.71573	 55.339855	
8.74899	 55.264261	
8.78226	 55.278693	
8.81552	 55.265684	
8.84879	 55.296003	
8.88206	 55.324191	
8.91532	 55.317727	
8.94859	 55.281701	
8.98185	 55.257679	
9.01512	 55.380037	
9.04839	 55.445173	
9.08165	 55.467576	
9.11492	 55.432338	
9.14819	 55.457816	
9.18145	 55.459286	
9.21472	 55.425875	
9.24798	 55.422788	
9.28125	 55.530984	
9.31452	 55.622222	
9.34778	 55.507768	
9.38105	 55.948870	
9.41431	 55.886043	
9.44758	 56.342016	
9.48085	 56.924177	
9.51411	 57.058200	
9.54738	 57.558814	
9.58065	 57.921329	
9.61391	 57.805564	
9.64718	 58.229793	
9.68044	 58.569288	
9.71371	 58.554271	
9.74698	 58.533788	
9.78024	 58.435838	
